<?xml version="1.0" standalone="no"?>
<!DOCTYPE svg PUBLIC "-//W3C//DTD SVG 20010904//EN"
 "http://www.w3.org/TR/2001/REC-SVG-20010904/DTD/svg10.dtd">
<svg version="1.0" xmlns="http://www.w3.org/2000/svg"
 width="199.000000pt" height="199.000000pt" viewBox="0 0 199.000000 199.000000"
 preserveAspectRatio="xMidYMid meet">
<metadata>
Created by potrace 1.11, written by Peter Selinger 2001-2013
</metadata>
<g transform="translate(0.000000,199.000000) scale(0.100000,-0.100000)"
fill="#000000" stroke="none">
<path d="M805 1960 c-101 -21 -174 -45 -250 -82 -238 -118 -420 -326 -504
-576 -66 -196 -63 -451 8 -637 37 -98 54 -131 106 -210 124 -187 314 -330 530
-398 106 -33 138 -38 280 -42 346 -10 659 152 850 440 328 496 147 1156 -390
1422 -187 93 -429 125 -630 83z"/>
</g>
</svg>
